<svg width="35" height="36" viewBox="0 0 35 36" fill="none" xmlns="http://www.w3.org/2000/svg">
<path fill-rule="evenodd" clip-rule="evenodd" d="M12.6389 22.3653C6.81819 23.3812 0 25.9751 0 29.6667V35.5H35V29.6667C35 25.9751 28.1818 23.3812 22.3611 22.3653V26.75H12.6389V22.3653ZM6.80556 35.5V26.75H8.75V35.5H6.80556ZM27.2222 26.75V35.5H29.1667V26.75H27.2222ZM18.4722 0.556389V4.85556C18.4722 5.1134 18.3698 5.36069 18.1875 5.54302C18.0051 5.72535 17.7578 5.82778 17.5 5.82778C17.2422 5.82778 16.9949 5.72535 16.8125 5.54302C16.6302 5.36069 16.5278 5.1134 16.5278 4.85556V0.5C15.524 0.552501 14.537 0.779508 13.6111 1.17083V6.8C13.6111 7.05785 13.5087 7.30514 13.3264 7.48746C13.144 7.66979 12.8967 7.77222 12.6389 7.77222C12.381 7.77222 12.1337 7.66979 11.9514 7.48746C11.7691 7.30514 11.6667 7.05785 11.6667 6.8V2.38125C10.3347 3.52653 9.56667 5.01208 9.32264 6.31389L9.2993 6.45L9.27986 6.46944C9.19333 7.08097 9.24097 7.58458 9.36542 7.93069C9.44512 8.17153 9.42754 8.43398 9.31642 8.66203C9.2053 8.89008 9.00944 9.06566 8.77066 9.15131C8.53187 9.23695 8.26906 9.22587 8.03833 9.12043C7.8076 9.01499 7.62722 8.82354 7.53569 8.58694L7.48903 8.45083C1.84333 15.8222 33.1878 15.8183 27.5012 8.43819L27.4546 8.58014C27.3649 8.81759 27.186 9.01057 26.956 9.11786C26.726 9.22514 26.4631 9.23823 26.2236 9.15433C25.9841 9.07042 25.7868 8.89617 25.6741 8.6688C25.5613 8.44144 25.5419 8.17898 25.62 7.9375C25.76 7.535 25.8008 7.03333 25.725 6.47917L25.7075 6.46653C25.4975 5.15208 24.6983 3.69861 23.3333 2.55333V6.8C23.3333 7.05785 23.2309 7.30514 23.0486 7.48746C22.8662 7.66979 22.619 7.77222 22.3611 7.77222C22.1033 7.77222 21.856 7.66979 21.6736 7.48746C21.4913 7.30514 21.3889 7.05785 21.3889 6.8V1.33806C21.0092 1.16766 20.6185 1.02312 20.2193 0.905416C19.648 0.738999 19.0635 0.622875 18.4722 0.556389Z" fill="white"/>
</svg>
