<svg width="31" height="32" viewBox="0 0 31 32" fill="none" xmlns="http://www.w3.org/2000/svg">
<path d="M21.5935 3.92288e-05H11.8054C9.38739 0.00198172 7.064 0.946107 5.32247 2.63444C3.58094 4.32277 2.55655 6.62416 2.4641 9.05603H1.19231C0.876088 9.05603 0.57282 9.18246 0.349219 9.4075C0.125618 9.63254 0 9.93777 0 10.256C0 10.5743 0.125618 10.8795 0.349219 11.1046C0.57282 11.3296 0.876088 11.456 1.19231 11.456H2.4482V20.56H1.24C0.92378 20.56 0.620512 20.6864 0.396911 20.9115C0.17331 21.1365 0.0476923 21.4418 0.0476923 21.76C0.0476923 22.0783 0.17331 22.3835 0.396911 22.6085C0.620512 22.8336 0.92378 22.96 1.24 22.96H2.51179C2.6063 25.3897 3.63184 27.6883 5.37337 29.3736C7.11489 31.0589 9.43713 32.0002 11.8531 32H21.6412C22.8707 32.0002 24.0881 31.7566 25.224 31.283C26.3599 30.8094 27.3919 30.1152 28.261 29.24C29.1302 28.3648 29.8194 27.3257 30.2894 26.1823C30.7594 25.0389 31.0008 23.8134 31 22.576V9.42403C30.9979 8.1834 30.7529 6.95536 30.2789 5.81012C29.8049 4.66488 29.1113 3.62491 28.2376 2.74966C27.364 1.87442 26.3275 1.18107 25.1875 0.709268C24.0474 0.237466 22.8262 -0.00353722 21.5935 3.92288e-05ZM17.3346 6.28803C18.0637 6.28759 18.7839 6.45016 19.4431 6.76401C20.1022 7.07786 20.6838 7.53514 21.146 8.10282C21.6081 8.6705 21.9391 9.3344 22.1152 10.0466C22.2913 10.7587 22.3081 11.5014 22.1642 12.2208C22.021 12.9399 21.7211 13.6181 21.2862 14.2065C20.8512 14.7949 20.292 15.2789 19.6489 15.6237C19.0057 15.9685 18.2946 16.1654 17.5668 16.2003C16.8389 16.2352 16.1124 16.1073 15.4396 15.8256C14.6918 15.5118 14.0325 15.0172 13.5199 14.3858C13.0074 13.7543 12.6574 13.0054 12.501 12.2053C12.3446 11.4053 12.3866 10.5787 12.6232 9.79891C12.8599 9.01908 13.2839 8.31 13.8578 7.73443C14.7811 6.80855 16.0312 6.28848 17.3346 6.28803ZM22.8971 24.8C22.5809 24.8 22.2776 24.6736 22.054 24.4485C21.8304 24.2235 21.7048 23.9183 21.7048 23.6C21.7048 21.664 19.3043 20 17.3346 20C15.3649 20 12.9818 21.6 12.9818 23.6C12.9818 23.9183 12.8562 24.2235 12.6326 24.4485C12.409 24.6736 12.1058 24.8 11.7895 24.8C11.4733 24.8 11.17 24.6736 10.9464 24.4485C10.7228 24.2235 10.5972 23.9183 10.5972 23.6C10.5972 20.16 14.1583 17.6 17.3346 17.6C20.514 17.6 24.0878 20.16 24.0878 23.6C24.0837 23.917 23.9567 24.2198 23.734 24.444C23.5113 24.6681 23.212 24.7959 22.8971 24.8Z" fill="white"/>
</svg>
